<svg aria-hidden="true" style="position: absolute; width: 0; height: 0; overflow: hidden;" version="1.1" xmlns="http://www.w3.org/2000/svg" xmlns:xlink="http://www.w3.org/1999/xlink">
<defs>

<symbol id="icon-close" viewBox="0 0 32 32">
<path d="M26.667 7.303l-1.97-1.97-7.808 7.808-7.808-7.808-1.97 1.97 7.808 7.808-7.808 7.808 1.97 1.97 7.808-7.808 7.808 7.808 1.97-1.97-7.808-7.808 7.808-7.808z"></path>
</symbol>
</defs>
</svg>

<symbol id="icon-clock" viewBox="0 0 32 32">
<path d="M17.333 2.735v-1.401c0-0.736-0.597-1.333-1.333-1.333s-1.333 0.597-1.333 1.333v0 1.401c-7.503 0.693-13.333 6.956-13.333 14.582 0 3.674 1.354 7.032 3.589 9.603l-0.015-0.018c-1.34 0.674-2.244 2.038-2.244 3.614 0 0.053 0.001 0.106 0.003 0.159l-0-0.008c0 0.736 0.597 1.333 1.333 1.333s1.333-0.597 1.333-1.333v0c-0-0.013-0.001-0.028-0.001-0.043 0-0.842 0.65-1.532 1.475-1.595l0.005-0c0.101-0.020 0.19-0.048 0.275-0.086l-0.008 0.003c2.439 1.906 5.548 3.056 8.927 3.056s6.488-1.15 8.959-3.080l-0.032 0.024c0.068 0.033 0.149 0.062 0.233 0.083l0.010 0.002c0.836 0.059 1.491 0.751 1.491 1.596 0 0.014-0 0.028-0.001 0.042l0-0.002c0 0.736 0.597 1.333 1.333 1.333s1.333-0.597 1.333-1.333v0c0.002-0.045 0.003-0.098 0.003-0.151 0-1.576-0.904-2.94-2.221-3.603l-0.023-0.011c2.221-2.553 3.574-5.911 3.574-9.585 0-7.625-5.83-13.889-13.275-14.577l-0.058-0.004zM4 17.333c0-6.627 5.373-12 12-12s12 5.373 12 12c0 6.627-5.373 12-12 12v0c-6.624-0.008-11.992-5.376-12-11.999v-0.001z"></path>
<path d="M25.62 0c-0.736 0-1.333 0.597-1.333 1.333s0.597 1.333 1.333 1.333v0c0.078-0.006 0.17-0.010 0.262-0.010 1.869 0 3.39 1.484 3.451 3.338l0 0.006c0 0.736 0.597 1.333 1.333 1.333s1.333-0.597 1.333-1.333v0c-0.072-3.332-2.79-6.005-6.132-6.005-0.087 0-0.174 0.002-0.26 0.005l0.012-0z"></path>
<path d="M2.667 6c0.061-1.859 1.583-3.343 3.452-3.343 0.092 0 0.183 0.004 0.274 0.011l-0.012-0.001c0.736 0 1.333-0.597 1.333-1.333s-0.597-1.333-1.333-1.333v0c-0.074-0.003-0.161-0.005-0.248-0.005-3.342 0-6.060 2.673-6.132 5.998l-0 0.007c0 0.736 0.597 1.333 1.333 1.333s1.333-0.597 1.333-1.333v0z"></path>
<path d="M17.333 15.448v-6.115c0-0.736-0.597-1.333-1.333-1.333s-1.333 0.597-1.333 1.333v0 6.667c0 0.368 0.149 0.701 0.391 0.943l4 4c0.24 0.232 0.566 0.374 0.926 0.374 0.736 0 1.333-0.597 1.333-1.333 0-0.36-0.143-0.687-0.375-0.927l0 0z"></path>
</symbol>

<symbol id="icon-mail" viewBox="0 0 32 32">
<path d="M25.333 1.333h-18.667c-3.68 0.005-6.662 2.987-6.667 6.666v16c0.005 3.68 2.987 6.662 6.666 6.667h18.667c3.68-0.005 6.662-2.987 6.667-6.666v-16c-0.005-3.68-2.987-6.662-6.666-6.667h-0zM6.667 4h18.667c1.671 0.003 3.102 1.031 3.697 2.489l0.010 0.027-10.211 10.212c-0.725 0.722-1.725 1.169-2.829 1.169s-2.104-0.446-2.829-1.169l-10.211-10.212c0.605-1.485 2.035-2.513 3.706-2.516h0zM25.333 28h-18.667c-2.209 0-4-1.791-4-4v0-14l8.619 8.613c1.208 1.205 2.874 1.949 4.715 1.949s3.507-0.745 4.715-1.95l8.619-8.613v14c0 2.209-1.791 4-4 4v0z"></path>
</symbol>

<symbol id="icon-marker" viewBox="0 0 32 32">
<path d="M16 8c-2.946 0-5.333 2.388-5.333 5.333s2.388 5.333 5.333 5.333c2.946 0 5.333-2.388 5.333-5.333v0c0-2.946-2.388-5.333-5.333-5.333v0zM16 16c-1.473 0-2.667-1.194-2.667-2.667s1.194-2.667 2.667-2.667c1.473 0 2.667 1.194 2.667 2.667v0c0 1.473-1.194 2.667-2.667 2.667v0z"></path>
<path d="M16 32c-0.011 0-0.023 0-0.036 0-2.345 0-4.421-1.148-5.698-2.913l-0.014-0.021c-5.081-7.009-7.659-12.279-7.659-15.663 0-7.404 6.002-13.407 13.407-13.407s13.407 6.002 13.407 13.407v0c0 3.384-2.577 8.653-7.659 15.663-1.291 1.785-3.367 2.933-5.712 2.933-0.013 0-0.025-0-0.038-0h0.002zM16 2.908c-5.796 0.007-10.492 4.703-10.499 10.498v0.001c0 2.68 2.524 7.636 7.105 13.955 0.771 1.053 2.003 1.73 3.393 1.73s2.622-0.676 3.385-1.718l0.008-0.012c4.581-6.319 7.105-11.275 7.105-13.955-0.007-5.795-4.703-10.492-10.498-10.499h-0.001z"></path>
</symbol>

<symbol id="icon-phone" viewBox="0 0 32 32">
<path d="M17.333 1.333c0-0.736 0.597-1.333 1.333-1.333v0c7.36 0.008 13.325 5.973 13.333 13.333v0.001c0 0.736-0.597 1.333-1.333 1.333s-1.333-0.597-1.333-1.333v0c-0.007-5.888-4.778-10.66-10.666-10.667h-0.001c-0.736 0-1.333-0.597-1.333-1.333v0zM18.667 8c2.946 0 5.333 2.388 5.333 5.333v0c0 0.736 0.597 1.333 1.333 1.333s1.333-0.597 1.333-1.333v0c-0.005-4.416-3.584-7.995-8-8h-0c-0.736 0-1.333 0.597-1.333 1.333s0.597 1.333 1.333 1.333v0zM30.791 22.319c0.746 0.748 1.207 1.779 1.207 2.919s-0.461 2.171-1.207 2.919l0-0-1.213 1.399c-10.92 10.455-37.493-16.112-27.2-27.067l1.533-1.333c0.738-0.716 1.747-1.157 2.858-1.157 1.138 0 2.168 0.463 2.912 1.21l0 0c0.041 0.041 2.512 3.251 2.512 3.251 0.705 0.74 1.139 1.744 1.139 2.85 0 1.11-0.438 2.118-1.15 2.861l0.001-0.001-1.544 1.941c1.763 4.208 5.038 7.489 9.129 9.218l0.112 0.042 1.953-1.553c0.741-0.71 1.749-1.148 2.858-1.148 1.106 0 2.11 0.434 2.851 1.141l-0.002-0.002s3.208 2.469 3.249 2.511zM28.956 24.257s-3.191-2.455-3.232-2.496c-0.265-0.263-0.63-0.425-1.033-0.425s-0.768 0.162-1.033 0.425l0-0c-0.036 0.037-2.725 2.18-2.725 2.18-0.226 0.181-0.515 0.29-0.83 0.29-0.171 0-0.334-0.032-0.484-0.091l0.009 0.003c-5.453-2.070-9.683-6.295-11.715-11.607l-0.046-0.137c-0.062-0.148-0.098-0.321-0.098-0.502 0-0.316 0.11-0.606 0.293-0.834l-0.002 0.003s2.143-2.691 2.179-2.725c0.263-0.265 0.425-0.63 0.425-1.033s-0.162-0.768-0.425-1.033l0 0c-0.041-0.040-2.496-3.233-2.496-3.233-0.258-0.232-0.602-0.375-0.979-0.375-0.404 0-0.769 0.163-1.034 0.427l0-0-1.533 1.333c-7.523 9.045 15.505 30.796 23.432 23.305l1.215-1.4c0.295-0.274 0.479-0.664 0.479-1.097 0-0.376-0.139-0.719-0.367-0.981l0.002 0.002z"></path>
</symbol>

<symbol id="icon-phone1" viewBox="0 0 32 32">
<path d="M22 20c-2 2-2 4-4 4s-4-2-6-4-4-4-4-6 2-2 4-4-4-8-6-8-6 6-6 6c0 4 4.109 12.109 8 16s12 8 16 8c0 0 6-4 6-6s-6-8-8-6z"></path>
</symbol>

<symbol id="icon-envelop" viewBox="0 0 32 32">
<path d="M29 4h-26c-1.65 0-3 1.35-3 3v20c0 1.65 1.35 3 3 3h26c1.65 0 3-1.35 3-3v-20c0-1.65-1.35-3-3-3zM12.461 17.199l-8.461 6.59v-15.676l8.461 9.086zM5.512 8h20.976l-10.488 7.875-10.488-7.875zM12.79 17.553l3.21 3.447 3.21-3.447 6.58 8.447h-19.579l6.58-8.447zM19.539 17.199l8.461-9.086v15.676l-8.461-6.59z"></path>
</symbol>
</defs>
</svg>
